HIERARCHY
ROOT Hips
{
	OFFSET 0.000000 0.000000 0.000000 
	CHANNELS 6 Xposition Yposition Zposition Zrotation Yrotation Xrotation
	JOINT LeftUpLeg
	{
		OFFSET 1.363060 -1.794630 0.839290 
		CHANNELS 3 Zrotation Yrotation Xrotation
		JOINT LeftLeg
		{
			OFFSET 2.448110 -6.726130 0.000000 
			CHANNELS 3 Zrotation Yrotation Xrotation
			JOINT LeftFoot
			{
				OFFSET 2.562200 -7.039590 0.000000 
				CHANNELS 3 Zrotation Yrotation Xrotation
				JOINT LeftToeBase
				{
					OFFSET 0.157640 -0.433110 2.322550 
					CHANNELS 3 Zrotation Yrotation Xrotation
					End Site
					{
						OFFSET 0.000000 0.000000 0.000000 
					}
				}
			}
		}
	}
	JOINT RightUpLeg
	{
		OFFSET -1.305520 -1.794630 0.839290 
		CHANNELS 3 Zrotation Yrotation Xrotation
		JOINT RightLeg
		{
			OFFSET -2.542530 -6.985550 0.000000 
			CHANNELS 3 Zrotation Yrotation Xrotation
			JOINT RightFoot
			{
				OFFSET -2.568260 -7.056230 0.000000 
				CHANNELS 3 Zrotation Yrotation Xrotation
				JOINT RightToeBase
				{
					OFFSET -0.164730 -0.452590 2.363150 
					CHANNELS 3 Zrotation Yrotation Xrotation
					End Site
					{
						OFFSET 0.000000 0.000000 0.000000 
					}
				}
			}
		}
	}
	JOINT Spine
	{
		OFFSET 0.028270 2.035590 -0.193380 
		CHANNELS 3 Zrotation Yrotation Xrotation
		JOINT Spine1
		{
			OFFSET 0.056720 2.048850 -0.042750 
			CHANNELS 3 Zrotation Yrotation Xrotation
			JOINT Neck1
			{
				OFFSET -0.054170 1.746240 0.172020 
				CHANNELS 3 Zrotation Yrotation Xrotation
				JOINT Head
				{
					OFFSET 0.104070 1.761360 -0.123970 
					CHANNELS 3 Zrotation Yrotation Xrotation
					End Site
					{
						OFFSET 0.000000 0.000000 0.000000 
					}
				}
			}
			JOINT LeftArm
			{
				OFFSET 3.362410 1.200890 -0.311210 
				CHANNELS 3 Zrotation Yrotation Xrotation
				JOINT LeftForeArm
				{
					OFFSET 4.983000 -0.000000 -0.000000 
					CHANNELS 3 Zrotation Yrotation Xrotation
					JOINT LeftHand
					{
						OFFSET 3.483560 -0.000000 -0.000000 
						CHANNELS 3 Zrotation Yrotation Xrotation
						JOINT LeftHandIndex1
						{
							OFFSET 0.715260 -0.000000 -0.000000 
							CHANNELS 3 Zrotation Yrotation Xrotation
							End Site
							{
								OFFSET 0.000000 0.000000 0.000000 
							}
						}
					}
				}
			}
			JOINT RightArm
			{
				OFFSET -3.136600 1.374050 -0.404650 
				CHANNELS 3 Zrotation Yrotation Xrotation
				JOINT RightForeArm
				{
					OFFSET -5.241900 -0.000000 -0.000000 
					CHANNELS 3 Zrotation Yrotation Xrotation
					JOINT RightHand
					{
						OFFSET -3.444170 -0.000000 -0.000000 
						CHANNELS 3 Zrotation Yrotation Xrotation
						JOINT RightHandIndex1
						{
							OFFSET -0.622530 -0.000000 -0.000000 
							CHANNELS 3 Zrotation Yrotation Xrotation
							End Site
							{
								OFFSET 0.000000 0.000000 0.000000 
							}
						}
					}
				}
			}
		}
	}
}
MOTION
Frames: 10
Frame Time: 0.041667
-0.090412 18.025878 4.951920 -3.172118 -2.263699 -0.115044 -14.157484 -4.097091 -15.747134 3.668465 10.689941 36.095640 0.669470 0.593731 -12.214061 8.486800 -16.465900 -54.297900 14.633772 2.486960 -8.692608 -1.220874 -5.972995 19.878075 -0.518483 0.718359 -10.375636 -1.066700 6.565900 -18.435500 22.310513 -4.548478 29.491331 -2.577619 0.464553 -22.117507 -10.745103 1.926613 21.479724 -2.497800 -0.246600 9.004200 -63.862664 -43.952294 46.328410 126.344007 -50.995191 -91.047925 -0.913995 0.623495 -30.109800 -7.125000 0.000000 0.000000 44.984706 12.658567 17.593794 -147.404898 37.405717 -107.824301 1.626838 1.114064 1.008444 7.125000 0.000000 0.000000 
-0.085695 18.022439 4.959586 -3.296936 -1.744783 -0.004517 -14.053522 -4.562021 -15.806252 3.682182 10.707995 36.147762 0.689312 0.448937 -12.045516 8.460000 -16.447400 -54.203100 14.732652 2.128854 -8.794372 -1.223253 -5.995761 19.925224 -0.533672 0.689773 -10.618798 -1.032100 6.461800 -18.130400 22.856928 -4.647194 29.283522 -2.571742 0.444693 -21.884816 -11.195517 1.980650 21.170682 -2.613200 -0.272500 8.979100 -64.249356 -44.125434 46.639014 126.837506 -50.806791 -91.475035 -0.921437 0.630554 -29.887299 -7.125000 0.000000 0.000000 44.804228 13.035171 17.127292 -147.812294 37.105792 -108.108736 1.646785 1.109693 1.020390 7.125000 0.000000 0.000000 
-0.088053 18.023225 4.967054 -3.431018 -1.035238 0.137639 -13.908844 -5.177077 -15.837737 3.672576 10.701334 36.101247 0.692196 0.347965 -11.808227 8.492600 -16.469900 -54.318400 14.893301 1.713808 -8.775695 -1.195393 -5.952297 19.777874 -0.525255 0.456493 -10.953446 -1.045900 6.503500 -18.252600 23.341454 -4.707505 28.908440 -2.631394 0.416169 -21.907339 -11.344427 1.913110 21.134933 -2.644400 -0.333400 9.007700 -64.665335 -44.221562 47.303456 127.501964 -50.573665 -92.038893 -0.929131 0.631217 -30.060218 -7.125000 0.000000 0.000000 44.757856 13.391050 16.624930 -148.394494 36.680180 -108.495736 1.585140 1.100145 -0.360215 7.125000 0.000000 0.000000 
-0.101320 18.033052 4.975113 -3.649207 -0.032513 0.369502 -13.625527 -6.071590 -15.879854 3.635474 10.665400 35.933631 0.685580 0.250720 -11.469620 8.506600 -16.479500 -54.367400 15.215219 1.110177 -8.688723 -1.126810 -5.812808 19.355533 -0.481497 -0.023026 -11.326684 -1.125500 6.738600 -18.943400 23.867889 -4.771094 28.451259 -2.723181 0.386708 -21.943890 -10.988287 1.654682 21.210335 -2.527800 -0.442500 9.050900 -65.087524 -44.458936 48.181526 128.191605 -50.323426 -92.619323 -0.937103 0.634424 -30.038312 -7.125000 0.000000 0.000000 44.992634 13.431603 17.410270 -149.155664 36.105998 -109.005839 1.653237 1.222535 0.762392 7.125000 0.000000 0.000000 
-0.128149 18.054279 4.980616 -4.010314 1.310526 0.751204 -13.121321 -7.227163 -16.041166 3.565489 10.594806 35.614505 0.669355 0.135272 -10.956879 8.471400 -16.455300 -54.243500 15.763679 0.285331 -8.600162 -1.011331 -5.552280 18.586358 -0.415672 -0.640477 -11.714903 -1.159900 6.837300 -19.234300 24.484757 -4.841027 27.896372 -2.833851 0.345848 -21.949155 -10.365464 1.226937 21.255296 -2.338100 -0.606700 9.085100 -65.652977 -44.946850 49.267182 128.635033 -50.158682 -92.982628 -0.941684 0.649873 -29.683807 -7.125000 0.000000 0.000000 45.039320 13.786552 17.096243 -150.058813 35.408256 -109.582139 1.514765 1.219331 -1.500686 7.125000 0.000000 0.000000 
-0.167459 18.085629 4.983368 -4.365068 3.013623 1.228491 -12.524105 -8.535512 -16.335501 3.459561 10.485526 35.132111 0.637125 0.037488 -10.280828 8.487500 -16.466400 -54.300300 16.392634 -0.786821 -8.467682 -0.846966 -5.139131 17.398714 -0.330625 -1.342461 -12.073684 -1.093000 6.644000 -18.664800 24.897602 -4.848974 27.395040 -2.980645 0.320605 -21.982433 -9.509932 0.520822 21.272920 -2.110000 -0.872100 9.098000 -66.608546 -45.771899 50.860649 128.758998 -50.116122 -93.064354 -0.946124 0.670054 -29.186173 -7.125000 0.000000 0.000000 45.111050 13.848135 17.211593 -150.634390 34.967998 -109.946307 1.587154 1.303790 0.240461 7.125000 0.000000 0.000000 
-0.219740 18.126118 4.985333 -4.580254 5.016460 1.702976 -11.961901 -9.920801 -16.666555 3.322871 10.336182 34.502437 0.586722 -0.013029 -9.484117 8.561600 -16.517200 -54.561200 16.978761 -1.996059 -8.127203 -0.633615 -4.543726 15.730799 -0.211114 -2.232295 -12.447681 -0.955900 6.225900 -17.441300 24.890361 -4.767266 27.108482 -3.154420 0.323007 -22.148495 -8.023172 -0.543251 21.393641 -1.719000 -1.249000 9.131300 -68.125337 -46.844224 53.262464 128.634511 -50.176942 -92.926162 -0.941888 0.682598 -28.755838 -7.125000 0.000000 0.000000 45.011754 13.896161 16.688122 -151.106071 34.621178 -110.226984 1.634842 1.348758 0.933276 7.125000 0.000000 0.000000 
-0.285485 18.175451 4.985825 -4.681673 7.112006 2.112750 -11.411833 -11.237738 -17.004649 3.168158 10.153597 33.766191 0.532991 -0.069087 -8.581604 8.638800 -16.569600 -54.832500 17.543005 -3.125104 -7.455644 -0.378763 -3.750496 13.561709 -0.037036 -3.423547 -12.865765 -0.823400 5.789600 -16.175200 24.422279 -4.548476 27.123389 -3.375853 0.372689 -22.481705 -5.612564 -2.027410 21.466103 -1.073900 -1.740100 9.151800 -70.221331 -47.945069 56.596383 128.400022 -50.293981 -92.684918 -0.917044 0.681765 -28.785221 -7.125000 0.000000 0.000000 44.427393 14.268139 15.506454 -151.720289 34.219578 -110.526144 1.524524 1.466842 1.014900 7.125000 0.000000 0.000000 
-0.358601 18.231172 4.979339 -4.724240 9.106817 2.415391 -10.857635 -12.372169 -17.366401 3.007056 9.954602 32.978558 0.471846 -0.087099 -7.626419 8.732700 -16.632600 -55.161200 18.104845 -4.095537 -6.454626 -0.103221 -2.765382 10.932154 0.200915 -4.907129 -13.258995 -0.699200 5.345100 -14.895600 23.368616 -4.125014 27.525627 -3.682651 0.466618 -23.015596 -2.346806 -3.988277 21.055945 -0.224700 -2.366600 9.027600 -72.885745 -48.955829 60.775399 128.015254 -50.504307 -92.283730 -0.890752 0.683608 -28.973077 -7.125000 0.000000 0.000000 42.628435 15.587678 13.261284 -151.943224 34.278096 -110.527394 1.387423 1.464760 0.975419 7.125000 0.000000 0.000000 
-0.433486 18.286599 4.962337 -4.618330 10.718441 2.528736 -10.402381 -13.236876 -17.668448 2.845270 9.763021 32.201501 0.344805 0.223891 -6.672738 8.802200 -16.678700 -55.403400 18.689629 -6.116051 -5.484527 0.142694 -1.574417 7.848466 0.455167 -5.878649 -12.407041 -0.550200 4.752000 -13.202500 21.184474 -3.471398 28.630847 -3.877318 0.603766 -23.763205 1.634394 -6.286794 20.226924 0.744200 -3.087900 8.862600 -75.891456 -49.857475 65.321797 127.382672 -50.844266 -91.634003 -0.867070 0.700942 -28.940035 -7.125000 0.000000 0.000000 39.168823 18.662769 9.409662 -151.117984 35.400320 -109.763152 1.278051 1.485377 0.571625 7.125000 0.000000 0.000000 
